<svg enable-background="new 0 0 800 800" viewBox="0 0 800 800" xmlns="http://www.w3.org/2000/svg"><g fill="#fff"><path d="m199.2 257c-13.9 7.7-27.2 15.2-40.8 22.8v5.4 179.5c0 2.6.7 5.5-2.5 7.2-1.8.5-3.7.6-5.8-2-.1-14.7 0-30.2-.1-45.7 0-15.5 0-31 0-46.5 0-15.3 0-30.7 0-46 0-15.4 0-30.9 0-47.3-15.2 8.5-29.4 16.5-44 24.6v6.7 142c0 2.8.1 5.7-.1 8.5-.1 1.6-.6 3.2-1 5.2-1.9.3-3.6.5-4.8.7-2.4-1.4-3-3-3-4.9 0-1.2 0-2.3 0-3.5 0-47.2 0-94.3 0-141.5 0-2.5 0-5 0-8.2-5.8 3.2-11.1 6.1-16.4 9-10 5.6-20 11.3-30.1 16.8-4.2 2.3-5.9 2-9.3-1.2-.9-3.2.4-5.3 3.3-6.9 16.4-8.7 32.6-17.7 48.7-26.6 28.5-15.8 57.1-31.6 85.6-47.4 20.8-11.5 41.6-23.1 62.5-34.6 12.4-6.9 24.8-13.7 37.1-20.6 2.3-1.3 4.5-1.7 7.1-.9 26.1 8.2 52.3 16.3 78.5 24.4 48.2 14.9 96.5 29.9 144.7 44.8 1 .3 1.9.5 3.2.8.9-4.6.2-9.2.4-13.8.1-4.8 0-9.7 0-14.5 0-4.7 0-9.3 0-14 0-4.8 0-9.7 0-14.5 0-4.6 0-9.3 0-14.3 4.5-.5 8.6-.2 12.7-.2 4.2-.1 8.3 0 12.3 0 .3.3.5.4.6.5s.2.2.3.4c.1.3.2.6.2 1v2c0 25 .1 50 .1 75 0 .1.1.3.4.8 8.1 2.5 16.4 5.2 24.8 7.8 22.5 7 45.1 13.9 67.6 20.8 45.2 14 90.5 27.9 135.7 41.9 6.2 1.9 12.4 3.8 18.6 5.7 2 .6 4.2 1.1 5.7 3.9-.2 1.2-.5 2.9-.7 4.3-2.9 1.7-5.3 1.1-7.7.3-13.3-4.2-26.7-8.2-40-12.4-41.7-13-83.4-25.9-125.2-38.9-33.3-10.4-66.6-20.7-99.9-31.1-48.9-15.2-97.7-30.3-146.6-45.5-27.4-8.5-54.9-17-82.3-25.5-1.7-.5-3.5-.9-5.5-1.5-25.3 14.1-50.5 28.3-76.1 42.5v217.6c-3.9 3-4.5 3-8.2-.1 0-70.5 0-141.3 0-212.8z"/><path d="m380.4 410.2c-.5 17.3-1 33.9-1.4 50.8h6.8c.2 1.3.3 2.4.4 3.4-3.6 1-13.1 1.1-18.5.3-.1-.6-.2-1.2-.3-1.9 1.8-1 3.5-1.9 5.6-3.1.4-2.4 1.1-5 1.2-7.6.5-12.3.9-24.6 1.3-36.9.1-3.3.5-6.6.6-10 0-1-.1-1.9-.3-3.2-2.2 0-4.1 0-6.3 0 0-1.6 0-2.8 0-4.3h14.6c7.8 18 15.7 36.2 23.9 55.2 3.5-6.4 5.3-12.7 7.9-18.7 2.6-5.9 4.9-12 7.4-18 2.5-6.1 5.1-12.2 7.7-18.5h13.8c.1.9.3 1.8.4 2.6-.4.4-.6.7-.9.8-4.6 1.6-5.4 2.4-5.4 7.1 0 6.5.3 13 .6 19.5.1 2.7.4 5.3.6 8 .5 8.3.9 16.6 1.4 25.3 2.1.1 4.1.3 6.5.5.1 1.2.1 2.3.2 3.9-7.2.1-14.1 0-21.4 0-.1-.9-.1-1.7-.2-2.7 1.2-.6 2.6-1.2 4.5-2.1.5-1.3 1.3-3.1 1.9-5 .3-.9.1-2 .1-3-.5-8.8-1.1-17.6-1.6-26.4-.3-4.8-.4-9.5-1-14.4-4.4 8.8-7.7 17.9-11.4 26.9-3.7 9.1-7.4 18.1-11.2 27.4-.9.1-1.9.1-3.3.2-7.9-18.6-15.9-37-24.2-56.1z"/><path d="m231.9 461.1h5.9c.2.7.5 1.3.5 1.9.1.6-.1 1.2-.2 2.1-7.1 0-14.1 0-21.3 0-.1-.8-.3-1.5-.4-2.5 1.8-.8 3.4-1.5 5.5-2.4.4-1.9 1.3-4 1.3-6 .1-16.8.1-33.6.1-50.5 0-.5-.3-.9-.5-1.7-1.9 0-3.8 0-6 0 0-1.6 0-2.8 0-4.3h21.3c.1 1 .1 1.9.2 2.8-2 .9-3.7 1.7-5.3 2.5-2.2 8.4-.9 16.5-1.4 25.2 11.5.6 22.8.2 34.3.3 0-8.9 0-17.5 0-26.4-2 0-3.9 0-6.2 0-.1-1.5-.2-2.8-.3-3.8 1.4-1.2 15.9-1.3 21.7-.3.1.7.2 1.5.3 2.4-1.8.8-3.6 1.6-5.7 2.5-.4 2.5-1.1 4.9-1.1 7.3-.1 16.5-.1 33-.1 49.5 0 .3.2.6.4 1.2h6.1c.1 1.5.2 2.7.2 4.1-7.3 0-14.3 0-21.5 0-.1-.7-.2-1.5-.3-2.4 1.9-.9 3.7-1.7 5.6-2.6 2.6-9.1.6-18.2 1.4-27-11.7 0-22.8 0-33.8 0-1.1 3.6-1.4 19.4-.7 28.1z"/><path d="m345.6 346.2c-.3 12.1-4.4 22.2-14.1 29.5-6.5 4.8-14 6.6-22.1 5.8-2.6-.3-5.3-.4-7.8-1.1-13.5-3.7-20.6-13.2-23.2-26.5-1.7-8.7-.5-17.2 3.7-25.1 5.9-11.2 15.2-17.2 28-17.7 17.4-.6 30.8 9.5 35 28.3.5 2.2.4 4.6.5 6.8zm-58.2-2.5c.2 8.4 2 15.8 6 22.5 4.3 7.3 10.6 11.2 19.3 11.2 8.6 0 14.5-4.4 18.6-11.4 3.8-6.5 4.9-13.6 4.3-21.1-.5-7.5-2.8-14.3-7.1-20.4-8.9-12.5-26.3-12.5-35.1.1-4.2 5.9-5.8 12.6-6 19.1z"/><path d="m359.7 428.6c-.4 14.6-4.4 24.5-14 31.8-6.5 5-14 6.6-22.1 6-2.3-.2-4.7-.3-6.9-.8-14.1-3.3-22.5-14.3-24.5-28.2-1.2-8-.1-15.6 3.4-22.8 8.1-17.1 26.3-21.8 41.8-16.7 14.9 5 22.8 21.2 22.3 30.7zm-58.4 1.3c.3 7.2 1.9 14.2 5.7 20.7 4.2 7.3 10.1 11.6 18.8 11.8 9 .2 15.1-4.2 19.4-11.6 7.4-12.7 5.4-31.2-3.8-42.6-9.1-11.4-25.9-10.6-34.2 1.3-4.1 6.1-5.7 12.9-5.9 20.4z"/><path d="m244 343.4c7.5 7 12.4 15.2 18.4 22.6.8 1 1.6 2.1 2.4 3.2 3 3.9 6.3 7.4 11.6 8.1v2.8c-3.9 0-7.7 0-12.2 0-3-1.5-5.4-4.5-7.7-7.5-5.5-7.1-10.8-14.3-16.3-21.5-2-2.6-4.3-4.7-8.3-3.1v28h6.2c.1 1.5.1 2.7.2 4.1-7.3 0-14.3 0-21.5 0-.1-.8-.2-1.6-.3-2.6 1.7-.7 3.2-1.3 4.7-1.9 1.6-1.9 2.1-4.2 2.1-6.5 0-16.8 0-33.6 0-50.4 0-.5-.3-.9-.5-1.7-1.9 0-3.8 0-6 0 0-1.4 0-2.5 0-3.6 3.4-1.2 14.4-1.5 21.4-.5.1.9.1 1.8.2 3.1-5.3.1-6.4 3.8-6.5 7.8-.2 6.3-.1 12.6-.1 19.2h7.2c5.8-8.7 11.6-17.6 17.4-26.3-.9 0-2.2 0-3.9 0-.1-1.2-.2-2.4-.4-3.9h20c.1.8.3 1.7.5 2.9-1.7.4-3.3.9-4.9 1.2-4.3.8-7.8 3-10.3 6.5-4.6 6.4-8.9 13.1-13.4 20z"/><path d="m456.4 401.7c.1-1.6.3-2.7.4-3.7 4.6-1 41.9-1 46.3.1v16.4c-.7.1-1.5.1-2.3.2-.5-2.2-.9-4.1-1.4-6-1.1-4.4-3.9-7-8.4-7.3-4.3-.3-8.7-.2-13-.1-2.1.1-2.1.3-5.2 3-1.9 7.5-.9 15.3-1.2 23.4 6 .9 11.7.2 17.6.5 0-2.9 0-5.2 0-7.7 1.2-.2 2.3-.4 3.3-.5 1.2 1.5 1.4 13.1.4 20-.6.1-1.2.1-2.1.2-.4-1.4-.7-2.8-1.2-4.2-.8-2.2-2.1-3.9-4.6-3.9-4.3-.1-8.6 0-13.1 0v28.7c7.2 0 14.4.4 21.5-.1 5.8-.4 8.8-3.9 9.9-9.6.3-1.4.3-2.9.5-4.6h3.6c-.3 6.2-.6 12.2-.9 18.5-16.7 0-33.1 0-49.6 0-.1-.9-.2-1.5-.3-2.4 6.2-1.4 7-5.9 6.9-11.4-.2-15 0-30-.1-45 0-1.3-.1-2.6-.2-4-2.5-.2-4.5-.3-6.8-.5z"/><path d="m557.9 418c-1.2 0-2.1 0-3 0-.2-.4-.5-.8-.6-1.3-.7-2.4-1.1-4.9-2.1-7.1-3.7-8.5-14.1-12.1-21.6-7.7-6 3.5-7.2 11-2.7 16.3 2.9 3.4 6.8 5.2 10.7 7.2 5.3 2.8 10.6 5.5 15.7 8.7 6.5 4.1 8.3 10.6 7.1 17.8-1 6.5-5.1 10.7-11.2 12.9-9.3 3.3-18.3 2.4-27.3-2.3-.2.6-.3 1.1-.4 1.6s-.2 1-.3 1.7c-1.4 0-2.8 0-4.6 0 0-6.8 0-13.3 0-20.2h3.2c.3 1.3.5 2.5.7 3.6 1.6 7.1 7.4 12.3 14.6 13 3.6.3 7.2.3 10.8-1.2 7.5-3.2 8.3-13 3.8-18.1-2.9-3.2-6.6-5-10.2-6.9-5.3-2.8-10.7-5.5-15.7-8.7-6.5-4.2-8.9-11.5-6.9-18.7 2-7 8.2-11.8 15.8-12.3 6.6-.4 12.9.7 19.2 4.3.3-1.1.5-2 .8-3.2 1.3-.1 2.7-.1 4.4-.2-.2 6.9-.2 13.6-.2 20.8z"/><path d="m454.8 316c-9 .3-16.8.5-24.6 1-6.6.4-9.8 3.7-10.7 10.2-.2 1.6-.3 3.3-.4 5.2-1.1.1-2 .1-3.3.2-.8-6.8.9-13.2.4-19.5 4.2-1 43.2-1 47.6-.1 1.4 2.4-.3 4-1.4 5.8-8 12.1-15.9 24.2-23.9 36.3-4.6 6.9-9.2 13.8-14.1 21h13.2c3 0 6 0 9-.1 8-.3 12.5-4.1 14.3-11.9.3-1.1.4-2.3.7-3.7.8-.1 1.5-.1 2.8-.2.2 6.6.1 13-.3 19.7-16.5 0-32.8 0-49.4 0-.1-1.4-.2-2.8-.3-3.5 13.5-20.2 26.6-39.8 40.4-60.4z"/><path d="m378.1 311c2.7.1 2.9 1.7 3.4 3 5.6 14.4 11.3 28.7 16.9 43.1 2 5.1 3.7 10.3 5.5 15.5.3.9.4 1.9.7 3.2 1.8.1 3.8.3 6 .4.2 1 .3 2.1.5 2.9-1.2 1.3-12.9 1.5-22.2.7-.1-.7-.2-1.4-.4-2.4 1.6-.7 3.1-1.3 4.8-2.1 2.7-6.1-1.9-10.7-3.1-16.1-8.5 0-16.7 0-25.1 0-1.8 5.6-3.6 10.9-5.4 16.5h7c.1 1.4.2 2.6.3 4-6.2 0-12 0-18 0-.1-.7-.3-1.5-.4-2.5 5.2-1.2 6.9-5.3 8.5-9.6 6.4-17.8 12.9-35.6 19.5-53.3.3-1 .9-2.1 1.5-3.3zm-11.4 43.7c8 .8 18.2.6 21.6-.5-3.6-9.3-6.7-18.8-11-29-3.7 10.5-7.1 19.8-10.6 29.5z"/><path d="m502.2 347.6c5.7-10.7 10.8-20.3 16.1-30.3-2.2-.2-4.1-.3-6.4-.5 0-1.4 0-2.6 0-4.1h19.3c.1 1 .1 1.9.2 3.1-6.6 1.2-10.3 5.7-13.2 11.2-3.8 7.2-7.7 14.3-11.5 21.5-.6 1.2-1.3 2.5-1.3 3.7-.1 7.8-.1 15.6-.1 23.6 2.3.1 4.4.2 6.9.3.2 1.1.3 2.2.5 3.1-1.4 1.2-13 1.4-22.3.6-.1-.7-.1-1.4-.2-2.4 1.4-.6 2.7-1.2 4.7-2.1.4-1.2 1.1-2.9 1.4-4.6.3-1.3.1-2.7.1-4 0-4.3 0-8.6 0-12.6-7.2-12.6-16-23.8-22-37-1.7-.1-3.4-.2-5.6-.3-.1-1.3-.1-2.5-.2-3.9 4.2-1 8.2-.5 12.1-.6 4-.1 8 0 12.2 0 .2 1.1.3 2 .5 2.9-2.4.9-4.7 1.7-6.5 2.4-1.2 2.9-.6 5 .5 6.8 4.8 7.6 9.6 15 14.8 23.2z"/></g></svg>