<svg fill="none" height="101" viewBox="0 0 279 101" width="279" xmlns="http://www.w3.org/2000/svg"><g fill="#fff"><path d="m57.6288 21.0894c-5.162 2.8595-10.1011 5.6448-15.1516 8.4671v2.0054 66.6596 2.7785h-3.1169s.0346-12.0625-.0026-17.8187c0-5.7561 0-11.5122 0-17.2683 0-5.6819 0-11.4009 0-17.0827 0-5.719 0-11.4752 0-17.5655-5.6447 3.1566-10.9181 6.1275-16.34 9.1355v2.4882 52.7335 3.1501 2.1979h-3.3051s0-1.1145 0-1.8201c0-.4456 0-.8541 0-1.2997 0-17.5284 0-35.0195 0-52.5479 0-.9284 0-1.8568 0-3.0452-2.1539 1.1884-4.1221 2.2654-6.0903 3.3423-3.71367 2.0796-11.39435 6.3859-11.39435 6.3859l-2.22795-2.9706c6.09035-3.2308 12.3225-6.7576 18.3014-10.0627 10.5839-5.8675 21.2049-11.7351 31.7887-17.6026 7.7244-4.2707 15.4487-8.5785 23.2102-12.84916 4.6049-2.5624 9.2098-5.08768 13.7776-7.65008.8541-.482772 1.6711-.631315 2.6366-.334225 9.6926 3.045175 19.4225 6.053215 29.1525 9.061255 17.899 5.53331 35.527 11.06781 53.427 16.60111.371.1114 1.671.557 1.671.557s-.023-3.6723 0-5.3842c.025-1.892 0-3.5276 0-5.3842.025-1.7058 0-3.4531 0-5.1985.025-1.70526 0-3.60165 0-5.3842.025-1.70468 0-5.3841887 0-5.3841887l4.642-.00000252s2.848.00050734 4.641.00000044c.073-.00002049.186-.00000044.186-.00000044h.198v.73874122.74273c0 9.28412-.013 18.75472-.013 28.03872l.557.1857s5.732 1.856 8.852 2.8215c8.355 2.5996 16.748 5.162 25.104 7.7244 16.785 5.1991 33.608 10.361 50.394 15.5601 2.302.7056 4.605 1.4112 6.907 2.1168.743.2228 2.688.7404 2.688.7404l-1.114 3.1563s-1.685-.4431-2.576-.7401c-4.94-1.5598-9.916-3.0452-14.855-4.605-15.486-4.8277-30.972-9.6183-46.495-14.446-12.366-3.8622-24.732-7.6872-37.099-11.5494-18.159-5.6447-36.282-11.2523-54.442-16.897-10.175-3.1566-20.387-6.31316-30.5628-9.46974-.6313-.18569-1.2998-.33423-2.0425-.55705-9.3955 5.23622-18.7539 10.50959-28.2607 15.78289v81.656h-2.9332s-.112-53.3581-.112-79.9106z"/><path d="m124.765 77.6066c-.186 6.4246-.594 13.0328-.743 19.3089h2.599v1.4853h-6.683s.037-.8541 0-1.114c2.599 0 2.599-1.671 2.599-1.671s.043-1.1079.08-2.0734c.186-4.5678.514-10.9924.662-15.5601 0-1.2997 0-.5613 0-1.861 0-.3714 0-.9283 0-1.4853-.817 0-1.782 0-2.599 0 0-.5941 0-.5569 0-1.1139h5.57c2.897 6.6845 5.867 13.3669 8.912 20.4228 1.3-2.3768 1.976-4.8217 2.941-7.0499.966-2.1911 1.82-4.4564 2.748-6.6846.929-2.2653 1.886-4.3487 2.851-6.6883h5.199v1.114s-.557-.0001-.743-.0001c-.743 0-1.513 1.114-1.513 2.6035 0 2.4139.111 4.8278.222 7.2416.038 1.0027.149 1.9682.223 2.9709.186 3.0823.14 6.2326.325 9.4635h2.6v1.4853c-2.674.0371-5.153.0807-7.864.0807-.037-.3342.037-.8234 0-1.1947.437 0 .767 0 1.551-.3713.372-.1759.752-.3714.752-1.4853 0-.3714 0-2.9706 0-3.3419-.195-4.2703-.195-6.3865-.38-9.6545-.053-.9283-.186-2.2234-.372-4.8272-1.634 3.268-3.036 7.6172-4.41 10.9595-1.374 3.3794-3.09 6.7523-4.502 10.206-.371 0-.185 0-.742 0-2.934-6.9074-6.201-14.0724-9.283-21.1655z"/><path d="m69.4375 96.9154h2.5993v.7427.7426h-7.7978v-1.1139s.7427 0 1.4853-.557c.7427-.557.7427-2.4136.7427-2.4136s0-12.4758 0-18.7519c0-.1856 0-.9282 0-.9282h-2.228v-1.114s7.7607-.3714 7.7978 0 0 .7426 0 .7426-2.5993.3714-2.5993 1.8566v8.9118h12.9964v-10.397h-2.228v-1.114h7.7978v.7426s-2.5992.3714-2.5992 1.8567v1.8566c-.0372 6.1275 0 12.253 0 18.3805v.557h2.5992v1.4852c-2.7109 0-5.124 0-7.7978 0 0-.1856 0-.7426 0-1.1139 1.8566 0 2.228-1.4853 2.228-2.9706 0-.9283 0-8.1691 0-8.1691h-12.9964z"/><path d="m111.996 54.215c-.111 4.4935-1.634 8.2443-5.236 10.9552-2.414 1.7826-5.199 2.451-8.207 2.1539-.9655-.1114-1.9682-.1485-2.8966-.4085-5.0134-1.374-7.6501-4.902-8.6156-9.8411-.6313-3.2309-.1857-6.3874 1.374-9.3212 2.1911-4.1593 5.6448-6.3874 10.3982-6.5731 6.462-.2228 11.438 3.5279 12.998 10.5095.185.817.148 1.7083.185 2.5253zm-21.6129-.9284c.0742 3.1195.7427 5.8675 2.2281 8.3557 1.5969 2.7109 3.9365 4.1592 7.1674 4.1592 3.1934 0 5.3844-1.634 6.9074-4.2335 1.411-2.4139 1.82-5.0505 1.597-7.8358-.186-2.7852-1.04-5.3105-2.637-7.5758-3.305-4.642-9.7668-4.642-13.0348.0372-1.5597 2.191-2.1539 4.6791-2.2281 7.093z"/><path d="m117.233 84.8153c-.149 5.4219-1.634 9.0984-5.2 11.8093-2.413 1.8568-5.199 2.451-8.207 2.2282-.854-.0743-1.745-.1114-2.562-.2971-5.2363-1.2255-8.3557-5.3105-9.0985-10.4724-.4456-2.9709-.0371-5.7933 1.2627-8.4671 3.008-6.3503 9.7668-8.0957 15.5228-6.2018 5.533 1.8568 8.467 7.8729 8.282 11.4009zm-21.6881.4828c.1115 2.6738.7056 5.2733 2.1168 7.6872 1.5597 2.7109 3.7503 4.3078 6.9813 4.3821 3.343.0742 5.608-1.5598 7.205-4.3079 2.748-4.7163 2.005-11.5865-1.411-15.82-3.38-4.2336-9.619-3.9365-12.701.4827-1.5226 2.2654-2.1168 4.7906-2.1911 7.5759z"/><path d="m73.8934 53.4706c2.785 2.4136 4.6413 5.2353 6.8695 7.9834.2971.3714.7075.8912 1.0045 1.2997 1.1141 1.4483 1.9661 2.9706 4.3797 2.9706v1.08c-1.4483 0-2.7085 0-4.3797 0-1.114-.557-2.0053-1.6711-2.8595-2.7852-2.0425-2.6367-4.0107-5.3105-6.0532-7.9843-1.1078-1.4502-1.3749-1.4502-3.4172-1.4502v10.7683h2.5993v1.4853c-2.7109 0-5.124 0-7.7978 0 0-.3713 0-.7426 0-1.1139 1.114 0 1.6338 0 1.8566-.557.3714-.9283.3714-1.5595.3714-2.4136 0-6.2389 0-12.513 0-18.7519 0-.1856 0-.5569 0-.9283-.7056 0-1.411 0-2.228 0 0-.5199 0-.7054 0-1.1139h7.7978v.7426c-1.9682.0371-2.5621 1.5604-2.5993 3.0458-.0742 2.3396 0 5.2716 0 7.7226h2.9706c2.1539-3.2309 4.9013-7.1662 7.0552-10.3971-.3343 0-1.5966 0-2.228 0 0-.3713 0-.557 0-1.1139h7.4265v.7426c-.6313.1485-1.8194.2599-2.4136.3713-1.5969.2971-2.5992 1.4852-3.5276 2.7849-1.6709 2.5993-3.156 5.0498-4.8272 7.6122z"/><path d="m153.356 74.6361.001-1.114s15.182.0083 17.088.0083v5.9411c-.303 0-.743.0015-1.114.0015 0-.9298-.026-1.3339-.212-2.0395-.408-1.634-1.729-2.7481-3.118-2.7481-1.632 0-3.232-.0371-4.829 0-.78.0372-2.598.7339-2.598 2.1747v7.8009c2.44 0 4.327.0004 6.663.0004 0-1.077 0-2.0291 0-2.9575h1.508v7.4229h-1.126s.046-1.0352-.139-1.5551c-.297-.817-.78-1.4483-1.708-1.4483-1.597-.0371-3.546.0237-5.217.0237v11.1397s5.354.0083 7.991-.1774c2.154-.1485 3.896-2.0768 3.896-3.9422 0-.6944 0-1.8133 0-1.8133h1.109v7.0469s-12.431 0-18.559 0c-.037-.3343.038-.7715 0-1.1057 2.303-.5199 2.637-2.0421 2.6-4.0846 0-5.6388.037-11.1349 0-16.7054 0-.4828-.008-1.869-.008-1.869z"/><path d="m190.855 80.9422c-.446 0-1.138 0-1.472 0 0-.3208 0-.5328 0-.739 0-.7362-.292-1.6268-.663-2.4438-1.374-3.1566-5.236-4.4935-8.022-2.8595-2.228 1.2998-2.673 4.085-1.002 6.0532 1.077 1.2627 2.525 1.9311 3.973 2.6738 1.969 1.0399 3.937 2.0425 5.831 3.2309 2.414 1.5226 3.082 3.9364 2.636 6.6103-.371 2.4138-1.893 3.9735-4.159 4.7905-3.453 1.2255-6.796.8913-10.138-.8541-.074.2228-.111.4085-.149.5942-.037.1857-.074.3713-.111.6313-.52 0-1.04 0-1.708 0 0-2.5253 0-4.9391 0-7.5015h1.188c.112.4827.186.9284.26 1.3369.594 2.6367 2.748 4.5677 5.422 4.8277 1.337.1114 2.674.1114 4.011-.4456 2.785-1.1884 3.082-4.8278 1.411-6.7217-1.077-1.1884-2.451-1.8568-3.788-2.5624-1.968-1.0398-3.974-2.0425-5.83-3.2309-2.414-1.5597-3.306-4.2706-2.563-6.9445.743-2.5995 3.045-4.382 5.868-4.5677 2.451-.1486 4.79.2599 7.13 1.5968 0-.4692 0-.8322 0-1.2626h1.894c0 2.5725-.019 5.1138-.019 7.7877z"/><path d="m152.614 43.0735c-3.342.1115-6.313 0-9.283 0-2.414 0-3.713 1.4853-4.085 3.1563-.074.5942-.334 2.0793-.371 2.7849-.409.0372-.743 0-.743 0v-7.0551h17.452v1.4853c-2.97 4.4935-6.117 9.5817-9.088 14.0752-1.708 2.5624-3.945 5.159-5.764 7.8329h5.198 3.713c2.971 0 5.199-2.5993 5.199-4.0846 0-.9283 0-1.8566 0-1.8566h1.114v7.4264h-18.566s0-1.1139 0-1.4852c5.013-7.5016 10.099-14.6294 15.224-22.2795z"/><path d="m124.022 41.2169h.743s4.76 11.6984 6.839 17.046c.743 1.894 1.033 2.931 1.701 4.8621.186.5364.371 1.671.371 2.228h2.228v1.4852c-.742 0-7.797 0-7.797 0s0-.3713 0-1.1139c.735-.0774.928-.1857 1.603-.7026.996-.9684-.675-3.939-1.232-5.9789-3.157 0-6.121 0-9.24 0-.669 2.0796-1.603 4.2305-2.271 6.3101l2.599.0001v1.4852h-6.312v-1.1139c1.856 0 2.419-1.9652 3.013-3.5621 2.377-6.6102 4.791-13.2205 7.242-19.7936.111-.3714.513-1.1517.513-1.1517zm-4.27 16.3382h8.169s-2.556-7.3508-4.152-11.1387c-1.374 3.8994-4.017 11.1387-4.017 11.1387z"/><path d="m169.881 55.0691c2.116-3.9736 4.529-8.282 6.498-11.9956-.929 0-1.671 0-2.6 0 0-.5199 0-.5569 0-1.114h7.056v1.114c-2.204.148-3.565 1.4851-4.642 3.5276-1.411 2.6738-4.085 7.4265-4.456 7.9834-.371.557-.928 1.411-.928 1.8567-.037 2.8966 0 5.9408 0 8.9117h2.97v1.4853c-.742 0-4.641 0-8.169 0 0-.3713 0-.7426 0-1.1139.557 0 1.14-.0401 1.857-.557.353-.255.743-.557.743-1.114 0-.3713 0-.6312 0-1.114 0-1.5968 0-4.27 0-5.7555-2.971-4.6415-7.984-11.511-8.17-14.1103-.742 0-1.299 0-2.227 0-.001-.557 0-.557-.001-1.1139 1.671-.0001 2.822.0371 4.271 0h4.641v.7426c-1.485.1857-2.413.557-2.599 1.114-.433 1.2996.088 2.0422.557 2.7849 1.783 2.8224 3.267 5.4229 5.199 8.468z"/></g></svg>